<svg width="20" height="25" viewBox="0 0 20 25" fill="none" xmlns="http://www.w3.org/2000/svg">
<path d="M4.71413 3.84068C4.60971 3.74123 4.52808 3.62425 4.47389 3.4964C4.41971 3.36856 4.39403 3.23237 4.39833 3.09559C4.40263 2.95882 4.43682 2.82415 4.49895 2.69927C4.56107 2.57439 4.64992 2.46174 4.76042 2.36776C4.87092 2.27379 5.00091 2.20032 5.14295 2.15155C5.285 2.10279 5.43633 2.07968 5.5883 2.08355C5.74027 2.08742 5.8899 2.11819 6.02866 2.1741C6.16742 2.23002 6.29258 2.30998 6.397 2.40943L16.235 11.7844C16.4381 11.9778 16.5513 12.2339 16.5513 12.5001C16.5513 12.7662 16.4381 13.0223 16.235 13.2157L6.397 22.5917C6.29327 22.6934 6.16813 22.7754 6.02887 22.8331C5.8896 22.8909 5.73898 22.9231 5.58574 22.928C5.43251 22.9329 5.27972 22.9104 5.13625 22.8617C4.99278 22.813 4.86149 22.7391 4.75001 22.6444C4.63853 22.5496 4.54907 22.4359 4.48684 22.3098C4.42461 22.1837 4.39085 22.0477 4.38751 21.9097C4.38417 21.7717 4.41133 21.6346 4.4674 21.5061C4.52347 21.3777 4.60733 21.2605 4.71413 21.1615L13.8021 12.5001L4.71413 3.84068Z" fill="white"/>
</svg>
