<svg width="15" height="10" viewBox="0 0 15 10" fill="none" xmlns="http://www.w3.org/2000/svg">
<g clip-path="url(#clip0_175_3634)">
<path d="M2.30435 1.2124C2.24468 1.15602 2.17449 1.11194 2.09778 1.08268C2.02108 1.05342 1.93936 1.03955 1.85729 1.04187C1.77523 1.04419 1.69443 1.06266 1.6195 1.09621C1.54457 1.12976 1.47698 1.17773 1.4206 1.2374C1.36421 1.29707 1.32013 1.36726 1.29087 1.44397C1.26161 1.52067 1.24775 1.60239 1.25007 1.68446C1.25239 1.76652 1.27085 1.84732 1.3044 1.92225C1.33795 1.99718 1.38593 2.06477 1.4456 2.12115L7.0706 7.43365C7.18664 7.54336 7.34028 7.60449 7.49997 7.60449C7.65967 7.60449 7.8133 7.54336 7.92935 7.43365L13.555 2.12115C13.6159 2.06514 13.6652 1.99757 13.6998 1.92236C13.7345 1.84716 13.7538 1.76582 13.7568 1.68307C13.7597 1.60033 13.7462 1.51782 13.717 1.44035C13.6877 1.36288 13.6434 1.29198 13.5866 1.23178C13.5297 1.17158 13.4615 1.12327 13.3858 1.08967C13.3101 1.05607 13.2285 1.03783 13.1458 1.03603C13.063 1.03423 12.9807 1.04889 12.9036 1.07917C12.8265 1.10945 12.7563 1.15473 12.6968 1.2124L7.49997 6.1199L2.30435 1.2124Z" fill="#15161C"/>
</g>
<defs>
<clipPath id="clip0_175_3634">
<rect width="8.33333" height="15" fill="white" transform="translate(0 9.16675) rotate(-90)"/>
</clipPath>
</defs>
</svg>
