<svg width="20" height="25" viewBox="0 0 20 25" fill="none" xmlns="http://www.w3.org/2000/svg">
<path d="M14.7303 21.1593C14.8348 21.2588 14.9164 21.3758 14.9706 21.5036C15.0248 21.6314 15.0504 21.7676 15.0461 21.9044C15.0418 22.0412 15.0076 22.1759 14.9455 22.3007C14.8834 22.4256 14.7945 22.5383 14.684 22.6322C14.5735 22.7262 14.4436 22.7997 14.3015 22.8484C14.1595 22.8972 14.0081 22.9203 13.8562 22.9165C13.7042 22.9126 13.5546 22.8818 13.4158 22.8259C13.277 22.77 13.1519 22.69 13.0475 22.5906L3.2095 13.2156C3.00633 13.0222 2.89313 12.7661 2.89313 12.4999C2.89313 12.2338 3.00633 11.9777 3.2095 11.7843L13.0475 2.40828C13.1512 2.30665 13.2763 2.22458 13.4156 2.16685C13.5549 2.10912 13.7055 2.07686 13.8587 2.07196C14.012 2.06706 14.1647 2.08962 14.3082 2.13831C14.4517 2.187 14.583 2.26087 14.6944 2.35561C14.8059 2.45036 14.8954 2.56409 14.9576 2.69021C15.0198 2.81633 15.0536 2.95233 15.0569 3.09029C15.0603 3.22826 15.0331 3.36545 14.9771 3.49389C14.921 3.62233 14.8371 3.73946 14.7303 3.83848L5.64237 12.4999L14.7303 21.1593Z" fill="white"/>
</svg>
