<svg width="18" height="18" viewBox="0 0 18 18" fill="none" xmlns="http://www.w3.org/2000/svg">
<path d="M7.94531 16.9102C8.81904 16.9102 9.52734 16.2019 9.52734 15.3281C9.52734 14.4544 8.81904 13.7461 7.94531 13.7461C7.07158 13.7461 6.36328 14.4544 6.36328 15.3281C6.36328 16.2019 7.07158 16.9102 7.94531 16.9102Z" fill="white"/>
<path d="M13.2538 16.9102C14.1275 16.9102 14.8358 16.2019 14.8358 15.3281C14.8358 14.4544 14.1275 13.7461 13.2538 13.7461C12.3801 13.7461 11.6718 14.4544 11.6718 15.3281C11.6718 16.2019 12.3801 16.9102 13.2538 16.9102Z" fill="white"/>
<path d="M0.527341 2.14462H2.72646L5.27239 11.0571L5.0727 11.4565C4.54691 12.507 5.31018 13.7461 6.48787 13.7461H15.3632C15.6547 13.7461 15.8905 13.5103 15.8905 13.2188C15.8905 12.9273 15.6547 12.6914 15.3632 12.6914H6.48787C6.09627 12.6914 5.84033 12.2791 6.01615 11.9282L6.16191 11.6368H15.3632C15.4778 11.6367 15.5893 11.5994 15.6809 11.5303C15.7724 11.4613 15.8389 11.3643 15.8705 11.2541L17.9798 3.87135C18.0021 3.79286 18.006 3.71026 17.9911 3.63004C17.9762 3.54981 17.9429 3.47412 17.8938 3.4089C17.8445 3.34384 17.7809 3.29106 17.7078 3.2547C17.6347 3.21833 17.5542 3.19937 17.4726 3.1993H4.12461L3.63127 1.47254C3.59974 1.36233 3.53318 1.26537 3.44166 1.19634C3.35015 1.1273 3.23864 1.08994 3.124 1.0899H0.527341C0.235862 1.0899 0 1.32577 0 1.61725C0 1.90872 0.235862 2.14462 0.527341 2.14462Z" fill="white"/>
</svg>
