<svg width="21" height="21" viewBox="0 0 21 21" fill="none" xmlns="http://www.w3.org/2000/svg">
<g clip-path="url(#clip0_436_6586)">
<path d="M10.5 0C4.71007 0 0 4.71007 0 10.5C0 16.2899 4.71007 21 10.5 21C16.2899 21 21 16.2899 21 10.5C21 4.71007 16.2899 0 10.5 0Z" fill="white"/>
<path d="M14.3667 13.1293C14.7087 13.4715 14.7087 14.0244 14.3667 14.3666C14.2855 14.448 14.189 14.5125 14.0829 14.5565C13.9767 14.6005 13.8628 14.6231 13.7479 14.623C13.524 14.623 13.3 14.5373 13.1293 14.3666L10.5 11.7372L7.87069 14.3667C7.78954 14.448 7.69311 14.5126 7.58694 14.5566C7.48078 14.6006 7.36697 14.6231 7.25205 14.623C7.13712 14.6231 7.0233 14.6006 6.91712 14.5566C6.81094 14.5126 6.7145 14.448 6.63333 14.3667C6.29126 14.0244 6.29126 13.4715 6.63333 13.1293L9.2628 10.5L6.63329 7.87066C6.29122 7.52843 6.29122 6.9755 6.63329 6.6333C6.97553 6.29123 7.52846 6.29123 7.87069 6.6333L10.5 9.26277L13.1293 6.63326C13.4715 6.29119 14.0245 6.29119 14.3667 6.63326C14.7087 6.9755 14.7087 7.52843 14.3667 7.87066L11.7372 10.5L14.3667 13.1293Z" fill="#822A27"/>
</g>
<defs>
<clipPath id="clip0_436_6586">
<rect width="21" height="21" fill="white"/>
</clipPath>
</defs>
</svg>
