<svg width="15" height="12" viewBox="0 0 15 12" fill="none" xmlns="http://www.w3.org/2000/svg">
<g clip-path="url(#clip0_436_6692)">
<path d="M2.30438 3.92078C2.24471 3.86439 2.17452 3.82031 2.09781 3.79105C2.02111 3.76179 1.93939 3.74793 1.85733 3.75025C1.77526 3.75257 1.69446 3.77103 1.61953 3.80458C1.5446 3.83813 1.47701 3.88611 1.42063 3.94578C1.36424 4.00545 1.32016 4.07564 1.2909 4.15234C1.26164 4.22905 1.24778 4.31077 1.2501 4.39283C1.25242 4.47489 1.27088 4.5557 1.30443 4.63063C1.33798 4.70555 1.38596 4.77314 1.44563 4.82953L7.07063 10.142C7.18667 10.2517 7.34031 10.3129 7.5 10.3129C7.6597 10.3129 7.81333 10.2517 7.92938 10.142L13.555 4.82953C13.616 4.77351 13.6652 4.70594 13.6999 4.63074C13.7345 4.55553 13.7538 4.47419 13.7568 4.39145C13.7597 4.3087 13.7462 4.2262 13.717 4.14872C13.6878 4.07125 13.6434 4.00035 13.5866 3.94015C13.5298 3.87995 13.4615 3.83165 13.3858 3.79804C13.3102 3.76444 13.2286 3.74621 13.1458 3.7444C13.063 3.7426 12.9807 3.75726 12.9036 3.78754C12.8266 3.81782 12.7563 3.86311 12.6969 3.92078L7.5 8.82828L2.30438 3.92078Z" fill="#15161C"/>
</g>
<defs>
<clipPath id="clip0_436_6692">
<rect width="11.875" height="15" fill="white" transform="translate(0 11.8751) rotate(-90)"/>
</clipPath>
</defs>
</svg>
