<svg width="14" height="18" viewBox="0 0 14 18" fill="none" xmlns="http://www.w3.org/2000/svg">
<path d="M3.39417 2.76519C3.31899 2.69359 3.26022 2.60936 3.2212 2.51731C3.18219 2.42527 3.1637 2.32721 3.1668 2.22873C3.16989 2.13025 3.19451 2.03329 3.23924 1.94337C3.28398 1.85346 3.34795 1.77236 3.42751 1.70469C3.50707 1.63703 3.60065 1.58413 3.70293 1.54902C3.8052 1.51391 3.91416 1.49727 4.02358 1.50006C4.133 1.50284 4.24073 1.525 4.34064 1.56526C4.44054 1.60551 4.53066 1.66309 4.60584 1.73469L11.6892 8.48469C11.8355 8.62394 11.917 8.80831 11.917 8.99994C11.917 9.19158 11.8355 9.37594 11.6892 9.51519L4.60584 16.2659C4.53116 16.3391 4.44106 16.3982 4.34079 16.4398C4.24051 16.4813 4.13206 16.5046 4.02174 16.5081C3.91141 16.5116 3.8014 16.4954 3.6981 16.4603C3.5948 16.4253 3.50028 16.3721 3.42001 16.3039C3.33974 16.2356 3.27534 16.1538 3.23053 16.0629C3.18573 15.9721 3.16141 15.8742 3.15901 15.7749C3.15661 15.6756 3.17616 15.5768 3.21653 15.4843C3.2569 15.3918 3.31728 15.3075 3.39417 15.2362L9.93751 8.99994L3.39417 2.76519Z" fill="#15161C"/>
</svg>
