<svg width="25" height="25" viewBox="0 0 25 25" fill="none" xmlns="http://www.w3.org/2000/svg">
<g clip-path="url(#clip0_1_237)">
<path d="M24.3294 5.32044C24.3294 5.16536 24.2833 5.01379 24.1969 4.88497C24.1106 4.75615 23.9879 4.6559 23.8444 4.59696L12.7972 0.0586596C12.6068 -0.0195532 12.3932 -0.0195532 12.2028 0.0586596L1.15558 4.59696C1.01214 4.65589 0.889443 4.75614 0.803098 4.88496C0.716753 5.01378 0.670652 5.16536 0.670654 5.32044V19.6796C0.670652 19.8346 0.716753 19.9862 0.803098 20.115C0.889443 20.2439 1.01214 20.3441 1.15558 20.403L12.2028 24.9413C12.3929 25.0196 12.6062 25.0195 12.7963 24.9413C12.8057 24.9382 12.3874 25.1097 23.8444 20.403C23.9879 20.3441 24.1106 20.2439 24.1969 20.115C24.2833 19.9862 24.3294 19.8346 24.3294 19.6796V5.32044ZM12.5 9.07894L8.42953 7.40677L17.2263 3.56932L21.569 5.35334L12.5 9.07894ZM2.23494 6.5531L5.74683 7.99582V12.0661C5.74683 12.498 6.09703 12.8482 6.52897 12.8482C6.96091 12.8482 7.31112 12.498 7.31112 12.0661V8.63845L11.7179 10.4488V23.0509L2.23494 19.1553V6.5531ZM12.5 1.62769L15.2114 2.74156L6.41468 6.57901L3.43104 5.35329L12.5 1.62769ZM13.2822 10.4488L22.7651 6.5531V19.1553L13.2822 23.0509V10.4488Z" fill="#82888E"/>
</g>
<defs>
<clipPath id="clip0_1_237">
<rect width="25" height="25" fill="white"/>
</clipPath>
</defs>
</svg>
