<svg width="20" height="20" viewBox="0 0 20 20" fill="none" xmlns="http://www.w3.org/2000/svg">
<g clip-path="url(#clip0_1_1823)">
<path d="M19.4636 4.25635C19.4636 4.13229 19.4267 4.01103 19.3576 3.90798C19.2886 3.80492 19.1904 3.72472 19.0757 3.67757L10.2379 0.0469277C10.0855 -0.0156426 9.91468 -0.0156426 9.76234 0.0469277L0.924565 3.67757C0.809806 3.72471 0.711652 3.80491 0.642576 3.90797C0.5735 4.01102 0.536619 4.13229 0.536621 4.25635V15.7436C0.536619 15.8677 0.5735 15.989 0.642576 16.092C0.711652 16.1951 0.809806 16.2753 0.924565 16.3224L9.76234 19.9531C9.91441 20.0157 10.085 20.0156 10.2371 19.953C10.2446 19.9505 9.91004 20.0878 19.0757 16.3224C19.1904 16.2753 19.2886 16.1951 19.3576 16.092C19.4267 15.989 19.4636 15.8677 19.4636 15.7436V4.25635ZM10.0001 7.26316L6.74373 5.92541L13.7811 2.85545L17.2553 4.28267L10.0001 7.26316ZM1.78805 5.24248L4.59756 6.39666V9.65288C4.59756 9.99844 4.87772 10.2786 5.22327 10.2786C5.56883 10.2786 5.84899 9.99844 5.84899 9.65288V6.91076L9.37439 8.35902V18.4408L1.78805 15.3242V5.24248ZM10.0001 1.30215L12.1692 2.19325L5.13184 5.26321L2.74493 4.28264L10.0001 1.30215ZM10.6258 8.35902L18.2122 5.24248V15.3242L10.6258 18.4408V8.35902Z" fill="#822A27"/>
</g>
<defs>
<clipPath id="clip0_1_1823">
<rect width="20" height="20" fill="white"/>
</clipPath>
</defs>
</svg>
