<svg width="17" height="17" viewBox="0 0 17 17" fill="none" xmlns="http://www.w3.org/2000/svg">
<path fill-rule="evenodd" clip-rule="evenodd" d="M12.75 8.49992C13.2799 8.49978 13.7991 8.35105 14.2487 8.07062C14.6983 7.79018 15.0603 7.38929 15.2935 6.91346C15.5267 6.43763 15.6217 5.90594 15.5679 5.37878C15.5141 4.85162 15.3135 4.35013 14.989 3.93125C14.6644 3.51237 14.2289 3.19289 13.7319 3.00911C13.2349 2.82533 12.6963 2.78461 12.1773 2.89158C11.6583 2.99854 11.1797 3.2489 10.7959 3.61422C10.4121 3.97954 10.1384 4.44518 10.0059 4.95825H2.12496C1.9371 4.95825 1.75693 5.03288 1.62409 5.16572C1.49126 5.29856 1.41663 5.47872 1.41663 5.66659C1.41663 5.85445 1.49126 6.03462 1.62409 6.16745C1.75693 6.30029 1.9371 6.37492 2.12496 6.37492H10.0059C10.3204 7.59679 11.4296 8.49992 12.75 8.49992ZM11.3333 5.66659C11.3333 6.04231 11.4825 6.40264 11.7482 6.66832C12.0139 6.934 12.3742 7.08325 12.75 7.08325C13.1257 7.08325 13.486 6.934 13.7517 6.66832C14.0174 6.40264 14.1666 6.04231 14.1666 5.66659C14.1666 5.29086 14.0174 4.93053 13.7517 4.66485C13.486 4.39917 13.1257 4.24992 12.75 4.24992C12.3742 4.24992 12.0139 4.39917 11.7482 4.66485C11.4825 4.93053 11.3333 5.29086 11.3333 5.66659ZM1.41663 11.3333C1.41595 10.6431 1.66715 9.97652 2.1231 9.45849C2.57905 8.94046 3.20839 8.60664 3.89299 8.5197C4.5776 8.43275 5.2704 8.59865 5.84137 8.98627C6.41233 9.37388 6.8222 9.95655 6.99404 10.6249H14.875C15.0628 10.6249 15.243 10.6995 15.3758 10.8324C15.5087 10.9652 15.5833 11.1454 15.5833 11.3333C15.5833 11.5211 15.5087 11.7013 15.3758 11.8341C15.243 11.967 15.0628 12.0416 14.875 12.0416H6.99404C6.81998 12.7078 6.40941 13.2878 5.83898 13.6734C5.26856 14.0591 4.57728 14.2239 3.89422 14.1371C3.21116 14.0504 2.58303 13.718 2.12711 13.202C1.67118 12.6861 1.41864 12.0218 1.41663 11.3333ZM5.66663 11.3333C5.66663 10.9575 5.51737 10.5972 5.2517 10.3315C4.98602 10.0658 4.62568 9.91659 4.24996 9.91659C3.87424 9.91659 3.5139 10.0658 3.24823 10.3315C2.98255 10.5972 2.83329 10.9575 2.83329 11.3333C2.83329 11.709 2.98255 12.0693 3.24823 12.335C3.5139 12.6007 3.87424 12.7499 4.24996 12.7499C4.62568 12.7499 4.98602 12.6007 5.2517 12.335C5.51737 12.0693 5.66663 11.709 5.66663 11.3333Z" fill="#15161C"/>
</svg>
