<svg width="13" height="13" viewBox="0 0 13 13" fill="none" xmlns="http://www.w3.org/2000/svg">
<circle cx="6.5" cy="6.5" r="6" stroke="#82888E"/>
<path d="M7.20021 2.80005L7.08224 7.96932H5.93113L5.81674 2.80005H7.20021ZM6.50669 10.2C6.28981 10.2 6.10392 10.1238 5.94901 9.97126C5.79648 9.81873 5.72021 9.63283 5.72021 9.41358C5.72021 9.19908 5.79648 9.01557 5.94901 8.86304C6.10392 8.71052 6.28981 8.63425 6.50669 8.63425C6.7188 8.63425 6.90231 8.71052 7.05722 8.86304C7.21451 9.01557 7.29316 9.19908 7.29316 9.41358C7.29316 9.55895 7.25622 9.69122 7.18234 9.81039C7.11084 9.92955 7.01551 10.0249 6.89635 10.0964C6.77957 10.1655 6.64968 10.2 6.50669 10.2Z" fill="#82888E"/>
</svg>
