<svg width="164" height="54" viewBox="0 0 164 54" fill="none" xmlns="http://www.w3.org/2000/svg">
<g clip-path="url(#clip0_1_153)">
<path d="M137.238 32.0575C134.85 32.0575 132.461 32.0575 129.753 32.0575C131.307 31.0465 130.944 29.6863 130.957 28.4363C130.975 26.4572 130.975 24.4842 130.945 22.5051C130.92 21.0958 130.453 20.477 129.532 20.4892C128.464 20.5076 127.819 21.3042 127.819 22.6338C127.813 24.907 127.832 27.1863 127.807 29.4596C127.795 30.4093 127.795 31.3284 128.765 32.0208C126.499 32.0208 124.24 32.0208 121.698 32.0208C123.177 30.973 122.815 29.5821 122.834 28.2892C122.858 26.5001 122.846 24.7109 122.834 22.9156C122.834 22.5051 122.815 22.0885 122.717 21.6963C122.502 20.8446 121.931 20.4218 121.194 20.5137C120.298 20.624 119.592 21.2613 119.592 22.0762C119.573 24.7232 119.536 27.3763 119.629 30.0171C119.653 30.6728 120.157 31.3039 120.47 32.0208C118.026 32.0208 115.429 32.0208 112.697 32.0208C112.85 31.8431 112.912 31.696 113.016 31.6592C114.514 31.0894 114.594 31.0098 114.612 29.4105C114.631 27.6949 114.625 25.9793 114.618 24.2636C114.606 21.8066 114.606 21.8066 112.334 20.5383C114.809 19.8152 117.074 19.1474 119.481 18.4427C119.543 19.1719 119.592 19.754 119.653 20.5076C120.114 20.1951 120.464 19.8765 120.881 19.6927C121.925 19.2331 122.969 18.6633 124.074 18.4427C125.769 18.1119 127.076 18.8349 127.752 20.5934C128.274 20.2135 128.673 19.901 129.096 19.613C130.097 18.9268 131.166 18.4243 132.418 18.3937C134.506 18.3386 135.648 19.2822 135.869 21.3654C135.961 22.2171 135.918 23.0811 135.924 23.9389C135.93 25.728 135.942 27.5172 135.924 29.3125C135.912 30.4032 135.973 31.4325 137.361 31.7879C137.324 31.8798 137.281 31.9656 137.238 32.0575Z" fill="#822A27"/>
<path d="M51.3156 33.9754C49.6885 33.283 48.393 32.4007 48.657 30.4154C48.8964 28.6385 50.3639 27.8236 51.7085 26.8065C51.3217 26.5736 51.07 26.4327 50.8244 26.2795C48.9394 25.0602 48.6754 22.6951 50.2472 21.0897C51.3708 19.9439 52.8137 19.4537 54.3364 19.1658C55.7977 18.89 55.6995 18.8839 56.0433 17.5236C56.2889 16.5433 56.6942 15.5139 57.3143 14.7357C58.4318 13.3326 60.7465 13.3571 61.9131 14.6009C62.8587 15.6119 62.8341 17.0519 61.864 18.02C60.986 18.8962 59.8378 18.8716 58.7633 17.9587C58.5669 17.7871 58.4072 17.5298 58.18 17.444C57.8301 17.3092 57.3204 17.1192 57.0871 17.2724C56.817 17.444 56.6512 17.9771 56.688 18.3324C56.7126 18.5592 57.1485 18.89 57.4371 18.9329C59.0519 19.178 60.5869 19.5947 61.8272 20.7282C63.3621 22.1314 63.4113 23.9512 61.9315 25.4278C61.514 25.8445 61.029 26.2244 60.5071 26.5001C58.4441 27.5907 56.2398 27.7684 53.968 27.3579C53.7838 27.3273 53.6058 27.2721 53.4216 27.2354C52.8506 27.1067 52.2611 26.978 52.0462 27.7378C51.8313 28.4976 52.2427 28.9755 52.9242 29.1838C53.4523 29.3431 54.0233 29.4228 54.5759 29.4289C56.0679 29.4412 57.566 29.3248 59.058 29.3922C60.0896 29.4351 61.164 29.5453 62.1219 29.9007C65.1734 31.0159 65.9409 34.4043 63.7367 36.8C61.9929 38.6934 59.6966 39.496 57.2345 39.686C55.5767 39.8147 53.8759 39.6492 52.2182 39.447C51.3954 39.349 50.5542 38.9691 49.842 38.5279C48.4114 37.6333 48.3868 36.0403 49.7192 35.0047C50.1981 34.631 50.7261 34.3491 51.3156 33.9754ZM56.1109 34.3614C56.1109 34.343 56.1109 34.3246 56.1109 34.3062C55.1776 34.3062 54.2443 34.3001 53.3111 34.3062C52.3471 34.3124 51.9664 34.6984 51.9357 35.6665C51.8989 36.8123 52.5251 37.6088 53.4523 38.099C55.6197 39.2509 57.873 39.4041 60.1264 38.3135C61.1825 37.8049 61.6614 36.9287 61.5079 35.9851C61.3605 35.1089 60.679 34.4901 59.4756 34.3798C58.3581 34.2879 57.2345 34.3614 56.1109 34.3614ZM54.2443 23.2465C54.4224 24.0737 54.5391 25.1215 54.9075 26.0651C55.0609 26.4572 55.7732 26.8493 56.2214 26.8432C56.6696 26.8371 57.3511 26.4143 57.5046 26.016C58.1985 24.1779 58.1923 22.2723 57.3696 20.477C57.1731 20.0542 56.4854 19.7233 55.9635 19.613C55.3004 19.4721 54.8153 19.9807 54.6618 20.6057C54.4715 21.39 54.404 22.211 54.2443 23.2465Z" fill="#822A27"/>
<path d="M89.2175 19.1903C91.17 18.9452 93.1225 18.6817 95.0811 18.4672C95.9346 18.3753 95.9039 19.0432 95.91 19.6069C95.9161 22.0272 95.91 24.4536 95.91 26.8739C95.91 27.1741 95.91 27.4682 95.91 27.7684C95.9161 29.8088 95.9161 29.8088 97.9362 30.0049C97.0091 31.0404 95.8916 31.8247 94.4794 32.082C92.9383 32.3578 91.655 31.9289 90.8691 30.3174C90.4884 30.6115 90.206 30.8321 89.9174 31.0527C88.8859 31.8369 87.75 32.3639 86.4484 32.5171C84.4099 32.756 82.8933 31.6102 82.7275 29.5699C82.6232 28.2709 82.6784 26.9658 82.6723 25.6607C82.6662 24.7661 82.6784 23.8715 82.6723 22.9769C82.66 21.5002 82.8626 19.9071 80.7505 19.4353C80.7996 19.3618 80.8487 19.2822 80.8979 19.2086C81.4259 19.1474 81.9601 19.0861 82.4881 19.0187C83.8205 18.8471 85.159 18.6939 86.4913 18.4856C87.3264 18.3569 87.6518 18.6572 87.6395 19.4966C87.6149 22.2539 87.6272 25.0112 87.6334 27.7746C87.6334 28.1851 87.6211 28.5956 87.6763 29C87.7991 29.8762 88.3517 30.348 89.1868 30.3358C90.0955 30.3235 90.8138 29.723 90.82 28.8591C90.8445 26.3592 90.8077 23.8654 90.82 21.3654C90.8261 20.2258 90.0648 19.7785 89.1192 19.4353C89.1622 19.3557 89.1868 19.2699 89.2175 19.1903Z" fill="#822A27"/>
<path d="M79.6268 25.5199C79.6145 29.4965 76.3542 32.5785 72.1913 32.5601C68.0407 32.5356 64.7436 29.4107 64.7374 25.4953C64.7313 21.5004 68.01 18.3632 72.2282 18.3387C76.4279 18.3019 79.6452 21.4268 79.6268 25.5199ZM74.4385 25.0236C74.2298 23.3937 74.0947 21.868 73.8184 20.373C73.671 19.5703 73.1553 18.9392 72.2036 18.9392C71.3133 18.9392 70.8221 19.509 70.6011 20.2565C70.3985 20.9612 70.2511 21.7148 70.2572 22.4501C70.2695 24.9745 70.2879 27.499 70.4353 30.0173C70.509 31.2672 71.3072 31.9351 72.2527 31.9106C73.1676 31.8861 73.7816 31.2672 73.9412 30.0173C74.1561 28.3261 74.285 26.6228 74.4385 25.0236Z" fill="#822A27"/>
<path d="M152.514 26.8677C152.36 27.3641 152.275 27.7378 152.127 28.0871C150.629 31.6593 147.166 33.2891 143.39 32.1985C140.081 31.2426 137.981 27.9584 138.527 24.6007C139.135 20.8753 142.42 18.1854 146.135 18.3692C149.291 18.5285 151.507 20.2503 152.293 23.1608C152.545 24.0982 152.416 24.2943 151.409 24.3004C149.278 24.3188 147.142 24.3066 145.011 24.3188C143.808 24.3249 143.629 24.521 143.838 25.7158C144.108 27.2722 144.931 28.467 146.521 28.8285C148.302 29.239 150.033 29.0858 151.415 27.6704C151.648 27.4315 151.869 27.1864 152.103 26.9474C152.121 26.9168 152.17 26.9229 152.514 26.8677ZM145.594 23.7428C146.006 23.7428 146.429 23.8102 146.816 23.7183C147.074 23.6571 147.485 23.3446 147.473 23.173C147.406 22.0701 147.375 20.9304 147.062 19.8888C146.699 18.694 145.324 18.5469 144.636 19.5947C144.225 20.2258 143.955 21.0101 143.851 21.7515C143.562 23.7367 143.623 23.7551 145.594 23.7428Z" fill="#822A27"/>
<path d="M164.37 30.2685C162.823 32.3088 159.464 33.0993 157.475 32.0086C156.284 31.353 155.725 30.2991 155.707 28.9695C155.676 26.5492 155.682 24.1228 155.67 21.6964C155.664 20.2075 155.664 20.2075 154.19 20.1952C153.889 20.1952 153.595 20.183 153.294 20.1585C153.196 20.1462 153.104 20.0666 152.815 19.9073C155.768 18.2468 158.316 16.2677 160.275 13.6023C160.398 13.6452 160.521 13.6942 160.637 13.7371C160.637 14.6378 160.637 15.5446 160.637 16.4453C160.643 18.9269 160.478 18.6941 162.743 18.6818C162.964 18.6818 163.191 18.7124 163.406 18.7553C163.505 18.7737 163.591 18.8656 163.719 18.9514C163.664 19.9011 163.093 20.1707 162.234 20.1952C160.637 20.232 160.637 20.2504 160.637 21.8128C160.637 23.749 160.625 25.6914 160.643 27.6276C160.668 29.9744 161.313 30.5136 163.676 30.2256C163.848 30.2133 164.026 30.2501 164.37 30.2685Z" fill="#822A27"/>
<path d="M107.662 32.0639C104.819 32.0639 101.982 32.0639 98.9125 32.0639C99.1888 31.8249 99.2931 31.6778 99.4343 31.6288C100.773 31.1386 100.908 30.9793 100.932 29.5272C100.957 27.9218 100.951 26.3226 100.945 24.7173C100.932 23.0568 101.258 21.2247 98.7712 20.7407C98.8265 20.661 98.8756 20.5875 98.9309 20.5078C99.2133 20.3853 99.4896 20.2382 99.7843 20.1525C101.43 19.65 103.081 19.1905 104.715 18.6513C105.458 18.4062 105.789 18.5839 105.789 19.362C105.789 19.8645 105.789 20.3608 105.789 20.8632C105.875 20.8816 105.961 20.8939 106.047 20.9122C106.428 20.4282 106.778 19.9135 107.201 19.4723C108.35 18.2653 110.026 18.0386 111.155 18.8964C111.948 19.4968 112.267 20.2934 112.076 21.2615C111.898 22.1806 111.34 22.7994 110.413 23.0384C109.449 23.2896 108.785 22.8178 108.147 22.1622C107.822 21.8313 107.146 21.3534 106.956 21.4698C106.551 21.721 106.127 22.3093 106.108 22.7688C106.023 25.2626 106.053 27.7625 106.065 30.2624C106.072 31.3041 106.986 31.4879 107.779 31.7698C107.742 31.8678 107.699 31.9658 107.662 32.0639Z" fill="#822A27"/>
<path d="M113.925 41.7449H112.911V37.3271H115.472V38.2707H113.925V39.2021H115.282V40.1518H113.925V41.7449Z" fill="#822A27"/>
<path d="M117.32 39.5391C117.32 38.8896 117.535 38.3443 117.971 37.9093C118.407 37.4742 118.978 37.2537 119.672 37.2537C120.365 37.2537 120.924 37.462 121.36 37.8786C121.802 38.2953 122.023 38.8467 122.023 39.5391C122.023 40.2009 121.802 40.7523 121.354 41.1812C120.912 41.6101 120.353 41.8246 119.672 41.8246C118.984 41.8246 118.419 41.6163 117.977 41.1996C117.541 40.783 117.32 40.2254 117.32 39.5391ZM118.394 39.5391C118.394 39.9129 118.517 40.2315 118.769 40.495C119.015 40.7523 119.315 40.881 119.672 40.881C120.077 40.881 120.39 40.7585 120.611 40.5072C120.832 40.2499 120.949 39.9313 120.949 39.5391C120.949 39.1409 120.826 38.8161 120.58 38.571C120.329 38.3198 120.028 38.1973 119.672 38.1973C119.303 38.1973 118.996 38.3198 118.757 38.571C118.517 38.8222 118.394 39.1409 118.394 39.5391Z" fill="#822A27"/>
<path d="M123.798 39.5391C123.798 38.8896 124.013 38.3443 124.448 37.9093C124.884 37.4742 125.455 37.2537 126.149 37.2537C126.843 37.2537 127.402 37.462 127.838 37.8786C128.28 38.2953 128.501 38.8467 128.501 39.5391C128.501 40.2009 128.28 40.7523 127.832 41.1812C127.389 41.6101 126.831 41.8246 126.149 41.8246C125.462 41.8246 124.897 41.6163 124.455 41.1996C124.019 40.783 123.798 40.2254 123.798 39.5391ZM124.872 39.5391C124.872 39.9129 124.995 40.2315 125.247 40.495C125.492 40.7523 125.793 40.881 126.149 40.881C126.554 40.881 126.868 40.7585 127.089 40.5072C127.31 40.2499 127.426 39.9313 127.426 39.5391C127.426 39.1409 127.304 38.8161 127.058 38.571C126.806 38.3198 126.505 38.1973 126.149 38.1973C125.781 38.1973 125.474 38.3198 125.234 38.571C124.995 38.8222 124.872 39.1409 124.872 39.5391Z" fill="#822A27"/>
<path d="M130.699 41.745H130.588V37.3272H130.674C130.865 37.3272 131.073 37.3272 131.307 37.3211C131.393 37.3211 131.491 37.3211 131.601 37.3211C131.712 37.3211 131.792 37.3149 131.853 37.3149C131.915 37.3149 131.958 37.3149 131.988 37.3149C132.817 37.3149 133.443 37.5233 133.855 37.9338C134.266 38.3443 134.475 38.8713 134.475 39.5024C134.475 40.158 134.254 40.6972 133.812 41.1261C133.376 41.5489 132.75 41.7633 131.939 41.7633C131.773 41.7633 131.589 41.7633 131.387 41.7572C131.184 41.7511 130.957 41.745 130.699 41.745ZM131.976 38.2585C131.81 38.2585 131.687 38.2647 131.601 38.2769V40.8014C131.718 40.8075 131.841 40.8136 131.97 40.8136C132.418 40.8136 132.768 40.6972 133.02 40.4644C133.272 40.2315 133.4 39.9129 133.4 39.4962C133.4 39.1041 133.272 38.7977 133.014 38.5833C132.756 38.3627 132.412 38.2585 131.976 38.2585Z" fill="#822A27"/>
<path d="M140.719 40.5379C140.719 40.3541 140.504 40.158 140.068 39.9497C139.939 39.8945 139.829 39.8455 139.737 39.7965C139.645 39.7475 139.534 39.6801 139.418 39.5943C139.301 39.5085 139.209 39.4166 139.135 39.3247C139.061 39.2328 139 39.1163 138.945 38.9754C138.89 38.8345 138.865 38.6874 138.871 38.5281C138.871 38.1727 139 37.8725 139.264 37.6274C139.528 37.3762 139.872 37.2537 140.302 37.2537C140.867 37.2537 141.303 37.413 141.603 37.7377L141.057 38.4975C140.934 38.3811 140.83 38.3075 140.738 38.2647C140.646 38.2218 140.529 38.2034 140.388 38.2034C140.246 38.2034 140.142 38.234 140.062 38.2892C139.982 38.3504 139.946 38.4301 139.946 38.5281C139.946 38.6445 139.989 38.7426 140.081 38.8284C140.173 38.9142 140.283 38.9877 140.425 39.049C140.566 39.1102 140.713 39.1776 140.873 39.2634C141.032 39.3492 141.18 39.435 141.321 39.533C141.462 39.631 141.573 39.7597 141.665 39.9313C141.757 40.1028 141.8 40.2989 141.8 40.5256C141.8 40.9055 141.653 41.218 141.364 41.4631C141.082 41.7082 140.719 41.8307 140.283 41.8307C139.964 41.8307 139.657 41.7633 139.375 41.6347C139.086 41.506 138.89 41.3283 138.785 41.1016L139.362 40.4153C139.479 40.5624 139.62 40.6788 139.792 40.7585C139.964 40.8381 140.136 40.881 140.308 40.881C140.437 40.881 140.541 40.8504 140.615 40.7891C140.689 40.7278 140.719 40.642 140.719 40.5379Z" fill="#822A27"/>
<path d="M144.704 38.2769H143.378V37.3333H147.05V38.2769H145.723V41.751H144.71V38.2769H144.704Z" fill="#822A27"/>
<path d="M148.437 39.5391C148.437 38.8896 148.652 38.3443 149.088 37.9093C149.524 37.4742 150.095 37.2537 150.789 37.2537C151.483 37.2537 152.041 37.462 152.477 37.8786C152.919 38.2953 153.14 38.8467 153.14 39.5391C153.14 40.2009 152.919 40.7523 152.471 41.1812C152.029 41.6101 151.47 41.8246 150.789 41.8246C150.101 41.8246 149.536 41.6163 149.094 41.1996C148.652 40.783 148.437 40.2254 148.437 39.5391ZM149.512 39.5391C149.512 39.9129 149.634 40.2315 149.886 40.495C150.132 40.7523 150.433 40.881 150.789 40.881C151.194 40.881 151.507 40.7585 151.728 40.5072C151.949 40.2499 152.066 39.9313 152.066 39.5391C152.066 39.1409 151.943 38.8161 151.697 38.571C151.446 38.3198 151.145 38.1973 150.789 38.1973C150.42 38.1973 150.113 38.3198 149.874 38.571C149.628 38.8222 149.512 39.1409 149.512 39.5391Z" fill="#822A27"/>
<path d="M156.241 40.2009V41.745H155.228V37.3272C155.467 37.3272 155.732 37.3272 156.026 37.3211C156.315 37.3149 156.554 37.3149 156.732 37.3149C157.825 37.3149 158.372 37.7867 158.372 38.7303C158.372 39.3369 158.12 39.7597 157.623 40.0048L158.912 41.745H157.684L156.61 40.2009H156.241ZM156.683 38.2647C156.677 38.2647 156.659 38.2647 156.628 38.2647C156.591 38.2647 156.542 38.2708 156.468 38.2708C156.395 38.2708 156.321 38.2708 156.241 38.2708V39.2512H156.61C157.07 39.2512 157.297 39.0796 157.297 38.7426C157.297 38.424 157.095 38.2647 156.683 38.2647Z" fill="#822A27"/>
<path d="M163.437 41.7449H160.748V37.3271H163.376V38.2707H161.761V39.0489H163.185V39.9986H161.761V40.8013H163.437V41.7449Z" fill="#822A27"/>
<path d="M39.1646 30.3725C38.7962 29.4228 38.1269 28.4853 37.2489 27.8542C36.3771 27.217 35.4008 26.8738 34.4614 26.6716C33.5159 26.4756 32.5949 26.4082 31.7046 26.3959C28.1127 26.3163 24.5086 27.0638 21.2605 28.6017C19.8238 29.2819 18.4669 30.1274 17.2205 31.1139C17.1529 30.685 17.0854 30.25 17.0178 29.8211C17.0363 29.7659 17.0485 29.7046 17.0731 29.6495C17.1959 29.3125 17.4046 29.0368 17.6073 28.7488C17.7423 28.5588 17.8713 28.3628 17.9757 28.1544C18.2458 27.6214 18.2458 27.0393 18.2151 26.4572C18.1967 26.1079 18.1414 25.7587 18.0985 25.4094C17.9634 24.3065 17.7976 23.2036 17.5704 22.113C17.4906 21.7208 17.4292 21.3225 17.3555 20.9243C17.3064 20.6485 17.2512 20.3789 17.1898 20.1032C17.0977 19.6866 16.9994 19.276 16.9073 18.8655C16.8091 18.4243 16.7231 17.9771 16.631 17.5359C16.6187 17.4746 16.588 17.4195 16.5635 17.3643C16.3977 17.395 16.3609 17.4317 16.367 17.5727C16.3731 17.7503 16.3916 17.9219 16.4161 18.0996C16.5082 18.9023 16.6679 19.6866 16.8214 20.477C16.9442 21.1142 17.0424 21.7637 17.1345 22.4071C17.2143 22.9708 17.2634 23.5406 17.3187 24.1104C17.331 24.2391 17.3187 24.3739 17.2819 24.5026C17.2205 24.7109 17.0117 24.7599 16.8521 24.6129C16.7968 24.5639 16.7538 24.5026 16.7293 24.4352C16.6863 24.3249 16.6556 24.2146 16.6372 24.0982C16.5328 23.4426 16.4407 22.7808 16.3363 22.1252C16.2565 21.6044 16.1705 21.0836 16.0846 20.5628C15.9556 19.7723 15.8328 18.9881 15.7039 18.1976C15.6732 18.0199 15.6363 17.8361 15.5872 17.6646C15.5749 17.6155 15.5381 17.5604 15.4951 17.5236C15.4706 17.5053 15.4153 17.5236 15.3723 17.5236C15.3355 17.7013 15.3416 17.8668 15.3601 18.0383C15.6241 20.0174 15.8881 22.0027 16.1521 23.9818C16.1705 24.0982 16.1889 24.2146 16.1951 24.331C16.2135 24.5761 16.1521 24.6803 15.9065 24.7844C15.6977 24.7661 15.5872 24.6313 15.532 24.4413C15.5074 24.3678 15.5013 24.282 15.489 24.2024C15.2802 22.6399 15.0715 21.0836 14.8627 19.5211C14.7952 19.0187 14.7338 18.5163 14.6601 18.0199C14.6417 17.9035 14.611 17.7932 14.5803 17.6768C14.5741 17.6584 14.5496 17.6462 14.525 17.6217C14.482 17.6339 14.4391 17.6523 14.3899 17.6707C14.3899 17.7381 14.3777 17.7932 14.3838 17.8545C14.4391 18.4734 14.4943 19.0922 14.5496 19.7111C14.5557 19.803 14.568 19.901 14.5803 19.9929C14.6355 20.5689 14.6724 21.1449 14.7399 21.7208C14.8382 22.5725 14.9548 23.4181 15.0592 24.2698C15.0715 24.3801 15.0838 24.4903 15.0653 24.5945C15.0531 24.6925 15.0162 24.7967 14.961 24.8764C14.8566 25.0295 14.6662 25.0357 14.5557 24.8825C14.4943 24.8028 14.4513 24.7048 14.4329 24.6068C14.3347 24.135 14.2426 23.6632 14.1628 23.1852C14.1075 22.8605 14.0891 22.5296 14.0584 22.2049C14.0031 21.6595 13.954 21.1142 13.8987 20.5689C13.8926 20.5076 13.8926 20.4525 13.8865 20.3912C13.8128 19.6927 13.7452 18.9942 13.6654 18.2957C13.647 18.118 13.5795 17.9464 13.5303 17.7565C13.4505 17.7687 13.3953 17.7749 13.3339 17.781C13.34 17.9525 13.3523 18.1119 13.3584 18.2712C13.3769 18.6511 13.3891 19.0309 13.4076 19.4108C13.4198 19.7049 13.4444 19.9929 13.4567 20.287C13.4812 20.7159 13.4874 21.151 13.5242 21.5799C13.5733 22.1804 13.6409 22.7747 13.7023 23.3752C13.7084 23.4181 13.7084 23.461 13.7145 23.5039C13.7514 23.9634 13.7821 24.4229 13.8373 24.8825C13.9049 25.4217 13.9908 25.9548 14.0829 26.4878C14.1321 26.7881 14.1873 27.0944 14.2549 27.3947C14.4022 28.0258 14.7092 28.565 15.2373 28.9632C15.3907 29.0797 15.532 29.2022 15.6793 29.3248C15.8758 29.4963 16.0416 29.6863 16.1767 29.8946C16.2442 30.5318 16.3179 31.1691 16.3916 31.8002C15.1574 32.8908 14.0522 34.1163 13.1067 35.4582C12.0813 36.9287 11.2402 38.5279 10.6323 40.2129C10.4665 40.6725 10.3253 41.1381 10.1964 41.6099C8.91311 40.7889 7.71583 39.833 6.65362 38.7485C4.44324 36.4017 2.90211 33.5219 2.28812 30.299C1.64343 27.1189 1.71711 23.7428 2.2697 20.4831C2.83458 17.2357 4.04414 14.0679 6.2361 11.6415C8.39736 9.17217 11.3998 7.52394 14.5496 6.43328C15.2987 6.16981 16.06 5.9431 16.8275 5.73478C17.3064 5.66738 17.7853 5.61223 18.2642 5.58772C19.7808 5.50807 21.9605 5.45905 23.2069 6.4823C23.9867 7.11954 24.4472 8.16117 25.2392 8.83517C27.3084 10.606 30.3047 10.8756 32.994 10.4405C34.2588 10.2383 36.2665 9.74814 36.8314 8.41852C37.427 7.01538 35.978 5.4039 35.0508 4.53996C33.436 3.05103 31.4221 1.89298 29.2363 1.69078C26.9338 1.47633 25.2638 2.4812 23.3236 3.51058C22.4947 3.95174 21.6166 4.19683 20.7202 4.36227C20.2597 4.38678 19.7931 4.41741 19.3326 4.46643C17.6134 4.62574 15.9004 4.93823 14.2303 5.42841C10.9025 6.40877 7.66671 8.09377 5.21687 10.7101C2.7302 13.3081 1.31801 16.7455 0.630336 20.1706C-0.0511978 23.608 -0.241536 27.1618 0.366318 30.6789C0.673315 32.4252 1.18293 34.1776 1.9934 35.8074C2.78546 37.4373 3.83538 38.9384 5.05109 40.2742C6.43258 41.7263 8.01054 42.9824 9.71745 44.0118C9.65605 44.5081 9.60693 45.0044 9.60079 45.513C9.58237 46.426 9.64377 47.3451 9.84025 48.258C9.93235 48.7114 10.0674 49.1587 10.2209 49.5999C10.3867 50.0227 10.5341 50.4883 10.9454 50.9969C11.1481 51.242 11.4428 51.4748 11.7805 51.6096C12.112 51.7444 12.4559 51.7812 12.769 51.7628C13.0883 51.7383 13.383 51.6648 13.6532 51.5484C13.9479 51.4197 14.1259 51.2971 14.347 51.1562C15.1759 50.5864 15.8083 49.8327 16.2872 49.0423C16.6986 48.3683 17.0056 47.6575 17.2573 46.9345C17.9327 47.0693 18.6142 47.1857 19.3019 47.2531C19.744 47.3205 20.1983 47.3205 20.6465 47.3573C21.0948 47.3941 21.5491 47.4002 22.0035 47.4002C22.906 47.3879 23.8147 47.3205 24.7112 47.2041C28.2969 46.7139 31.7844 45.3108 34.6395 43.0008C36.0639 41.8305 37.2981 40.4151 38.2252 38.7853C39.14 37.1554 39.7295 35.2621 39.7111 33.3136C39.7049 32.3332 39.5453 31.3345 39.1646 30.3725ZM12.4129 40.8808C12.99 39.3673 13.7882 37.9397 14.7399 36.6346C15.3232 35.8442 15.9679 35.1089 16.6617 34.4226C16.7968 35.8625 16.9012 37.2963 16.9257 38.7301C16.9503 40.409 16.8766 42.0817 16.5758 43.7055C16.5389 43.9015 16.5021 44.0976 16.4652 44.2875C15.9065 44.1466 15.3539 43.9934 14.8075 43.8096C13.7944 43.4787 12.812 43.0621 11.8603 42.578C12.0261 42.0082 12.2041 41.4384 12.4129 40.8808ZM14.961 48.209C14.5373 48.8585 14.0277 49.4283 13.4321 49.8082C12.8243 50.231 12.3822 50.182 12.2103 49.9246C12.0752 49.7653 11.934 49.4099 11.805 49.0362C11.6884 48.6685 11.584 48.2948 11.5164 47.9149C11.3691 47.149 11.3323 46.3586 11.363 45.5681C11.3691 45.3659 11.3998 45.1637 11.4182 44.9554C12.2655 45.3721 13.1374 45.7397 14.0338 46.0461C14.6048 46.2483 15.1881 46.4198 15.7776 46.5791C15.5565 47.1551 15.2925 47.7127 14.961 48.209ZM36.1192 37.5843C35.3517 38.9139 34.2895 40.1026 33.0738 41.0952C30.6239 43.0927 27.5478 44.3549 24.3673 44.7961C22.2061 45.1025 19.9957 44.9983 17.8283 44.5878C17.8651 44.3611 17.902 44.1405 17.9327 43.9138C18.1844 42.1675 18.2028 40.4151 18.1169 38.6872C18.0309 36.9532 17.8344 35.2498 17.5889 33.5526C18.9703 32.3455 20.5176 31.3345 22.1877 30.5625C25.1287 29.2022 28.4013 28.5527 31.6432 28.6569C33.258 28.6936 34.8421 28.9387 35.8675 29.7108C36.8683 30.4338 37.3533 31.8431 37.3349 33.3075C37.341 34.7841 36.8805 36.2547 36.1192 37.5843Z" fill="#822A27"/>
</g>
<defs>
<clipPath id="clip0_1_153">
<rect width="164" height="54" fill="white"/>
</clipPath>
</defs>
</svg>
