<svg width="14" height="14" viewBox="0 0 14 14" fill="none" xmlns="http://www.w3.org/2000/svg">
<path d="M5.66236 11.154C5.60832 11.2084 5.54405 11.2515 5.47328 11.281C5.4025 11.3104 5.3266 11.3256 5.24995 11.3256C5.17329 11.3256 5.09739 11.3104 5.02662 11.281C4.95584 11.2515 4.89158 11.2084 4.83753 11.154L1.54403 7.85996C1.37999 7.69587 1.28784 7.47335 1.28784 7.24133C1.28784 7.00931 1.37999 6.78679 1.54403 6.62271L1.95645 6.21029C2.12053 6.04625 2.34305 5.9541 2.57507 5.9541C2.80709 5.9541 3.02961 6.04625 3.1937 6.21029L5.24995 8.26654L10.8062 2.71029C10.9703 2.54625 11.1928 2.4541 11.4248 2.4541C11.6568 2.4541 11.8794 2.54625 12.0434 2.71029L12.4559 3.12271C12.6199 3.28679 12.7121 3.50931 12.7121 3.74133C12.7121 3.97335 12.6199 4.19587 12.4559 4.35996L5.66236 11.154Z" fill="#822A27"/>
</svg>
