<svg width="25" height="25" viewBox="0 0 25 25" fill="none" xmlns="http://www.w3.org/2000/svg">
<path d="M24.9584 14.1663L23.0607 3.40376C22.8028 1.94149 21.4031 0.961535 19.9411 1.21941L3.66492 4.08941C2.20261 4.34723 1.2227 5.74664 1.48053 7.2089L1.61997 7.99982C0.667632 8.41525 0 9.36544 0 10.4691V21.1288C0 22.6136 1.20801 23.8216 2.69285 23.8216H18.85C20.3348 23.8216 21.5428 22.6136 21.5428 21.1288V17.5028L22.774 17.2858C23.4824 17.1609 24.0997 16.7676 24.5122 16.1784C24.9248 15.5892 25.0833 14.8745 24.9584 14.1663ZM23.3091 15.3359C23.1216 15.6037 22.8409 15.7825 22.519 15.8393L21.5428 16.0113V10.4691C21.5428 8.98423 20.3348 7.77621 18.85 7.77621H3.0721L2.92708 6.95382C2.87029 6.63185 2.94236 6.30704 3.12988 6.03918C3.3174 5.77136 3.59804 5.59261 3.92001 5.53581L20.1962 2.66587C20.2666 2.65343 20.3379 2.64717 20.4094 2.64716C20.9918 2.64716 21.5097 3.06568 21.6142 3.65875L23.5119 14.4212C23.5686 14.7433 23.4966 15.0681 23.3091 15.3359ZM18.85 22.3528H2.69285C2.01793 22.3528 1.46883 21.8037 1.46883 21.1288V15.9086H20.074V21.1287C20.074 21.8037 19.5249 22.3528 18.85 22.3528ZM2.69285 9.24509H18.85C19.5249 9.24509 20.074 9.79419 20.074 10.4691V11.1081H1.46883V10.4691C1.46883 9.79419 2.01793 9.24509 2.69285 9.24509ZM20.074 12.5769V14.4398H1.46883V12.5769H20.074Z" fill="#82888E"/>
<path d="M7.06761 19.4033H3.73582C3.33023 19.4033 3.0014 19.7321 3.0014 20.1377C3.0014 20.5433 3.33023 20.8721 3.73582 20.8721H7.06761C7.4732 20.8721 7.80202 20.5433 7.80202 20.1377C7.80202 19.7321 7.4732 19.4033 7.06761 19.4033Z" fill="#82888E"/>
</svg>
