<svg width="14" height="18" viewBox="0 0 14 18" fill="none" xmlns="http://www.w3.org/2000/svg">
<path d="M3.39405 2.76519C3.31887 2.69359 3.26009 2.60936 3.22108 2.51731C3.18207 2.42527 3.16358 2.32721 3.16668 2.22873C3.16977 2.13025 3.19439 2.03329 3.23912 1.94337C3.28385 1.85346 3.34783 1.77236 3.42738 1.70469C3.50694 1.63703 3.60053 1.58413 3.70281 1.54902C3.80508 1.51391 3.91404 1.49727 4.02346 1.50006C4.13287 1.50284 4.24061 1.525 4.34052 1.56526C4.44042 1.60551 4.53054 1.66309 4.60572 1.73469L11.6891 8.48469C11.8353 8.62394 11.9168 8.80831 11.9168 8.99994C11.9168 9.19158 11.8353 9.37594 11.6891 9.51519L4.60572 16.2659C4.53103 16.3391 4.44094 16.3982 4.34066 16.4398C4.24039 16.4813 4.13194 16.5046 4.02161 16.5081C3.91129 16.5116 3.80128 16.4954 3.69798 16.4603C3.59468 16.4253 3.50015 16.3721 3.41989 16.3039C3.33962 16.2356 3.27521 16.1538 3.23041 16.0629C3.1856 15.9721 3.16129 15.8742 3.15889 15.7749C3.15649 15.6756 3.17604 15.5768 3.21641 15.4843C3.25678 15.3918 3.31716 15.3075 3.39405 15.2362L9.93739 8.99994L3.39405 2.76519Z" fill="black"/>
</svg>
