<svg width="14" height="18" viewBox="0 0 14 18" fill="none" xmlns="http://www.w3.org/2000/svg">
<path d="M10.6059 2.76519C10.6811 2.69359 10.7399 2.60936 10.7789 2.51731C10.8179 2.42527 10.8364 2.32721 10.8333 2.22873C10.8302 2.13025 10.8056 2.03329 10.7609 1.94337C10.7161 1.85346 10.6522 1.77236 10.5726 1.70469C10.4931 1.63703 10.3995 1.58413 10.2972 1.54902C10.1949 1.51391 10.086 1.49727 9.97654 1.50006C9.86713 1.50284 9.75939 1.525 9.65948 1.56526C9.55958 1.60551 9.46946 1.66309 9.39428 1.73469L2.31095 8.48469C2.16467 8.62394 2.08316 8.80831 2.08316 8.99994C2.08316 9.19158 2.16467 9.37594 2.31095 9.51519L9.39428 16.2659C9.46897 16.3391 9.55906 16.3982 9.65934 16.4398C9.75961 16.4813 9.86806 16.5046 9.97839 16.5081C10.0887 16.5116 10.1987 16.4954 10.302 16.4603C10.4053 16.4253 10.4998 16.3721 10.5801 16.3039C10.6604 16.2356 10.7248 16.1538 10.7696 16.0629C10.8144 15.9721 10.8387 15.8742 10.8411 15.7749C10.8435 15.6756 10.824 15.5768 10.7836 15.4843C10.7432 15.3918 10.6828 15.3075 10.6059 15.2362L4.06261 8.99994L10.6059 2.76519Z" fill="black"/>
</svg>
