<svg width="14" height="18" viewBox="0 0 14 18" fill="none" xmlns="http://www.w3.org/2000/svg">
<path d="M10.6058 2.76519C10.681 2.69359 10.7398 2.60936 10.7788 2.51731C10.8178 2.42527 10.8363 2.32721 10.8332 2.22873C10.8301 2.13025 10.8055 2.03329 10.7608 1.94337C10.716 1.85346 10.6521 1.77236 10.5725 1.70469C10.4929 1.63703 10.3993 1.58413 10.2971 1.54902C10.1948 1.51391 10.0858 1.49727 9.97642 1.50006C9.867 1.50284 9.75927 1.525 9.65936 1.56526C9.55946 1.60551 9.46934 1.66309 9.39416 1.73469L2.31083 8.48469C2.16455 8.62394 2.08304 8.80831 2.08304 8.99994C2.08304 9.19158 2.16455 9.37594 2.31083 9.51519L9.39416 16.2659C9.46884 16.3391 9.55894 16.3982 9.65921 16.4398C9.75949 16.4813 9.86794 16.5046 9.97826 16.5081C10.0886 16.5116 10.1986 16.4954 10.3019 16.4603C10.4052 16.4253 10.4997 16.3721 10.58 16.3039C10.6603 16.2356 10.7247 16.1538 10.7695 16.0629C10.8143 15.9721 10.8386 15.8742 10.841 15.7749C10.8434 15.6756 10.8238 15.5768 10.7835 15.4843C10.7431 15.3918 10.6827 15.3075 10.6058 15.2362L4.06249 8.99994L10.6058 2.76519Z" fill="#82888E"/>
</svg>
