<svg width="15" height="13" viewBox="0 0 15 13" fill="none" xmlns="http://www.w3.org/2000/svg">
<path d="M7.21468 0.378116C7.30449 0.101722 7.69551 0.101722 7.78532 0.378115L9.1165 4.47508C9.15666 4.59868 9.27185 4.68237 9.40182 4.68237H13.7096C14.0002 4.68237 14.1211 5.05426 13.886 5.22508L10.4009 7.75714C10.2957 7.83353 10.2517 7.96894 10.2919 8.09255L11.6231 12.1895C11.7129 12.4659 11.3965 12.6957 11.1614 12.5249L7.67634 9.99286C7.57119 9.91647 7.42881 9.91647 7.32366 9.99286L3.83858 12.5249C3.60347 12.6957 3.28712 12.4659 3.37693 12.1895L4.70811 8.09255C4.74827 7.96894 4.70428 7.83353 4.59913 7.75714L1.11405 5.22508C0.878932 5.05426 0.999764 4.68237 1.29038 4.68237H5.59818C5.72815 4.68237 5.84334 4.59868 5.8835 4.47508L7.21468 0.378116Z" fill="#E0E0E0"/>
</svg>
