<svg width="35" height="35" viewBox="0 0 35 35" fill="none" xmlns="http://www.w3.org/2000/svg">
<rect x="0.5" y="0.5" width="34" height="34" rx="9.5" fill="#822A27"/>
<path d="M27.0541 9C27.7012 9 28.1894 9.57996 27.9283 10.6587L24.7607 25.9117C24.5393 26.9962 23.8979 27.2572 23.0123 26.7526L15.4568 21.0516C15.4275 21.0301 15.4036 21.0018 15.3871 20.969C15.3707 20.9363 15.3621 20.9 15.3621 20.8631C15.3621 20.8263 15.3707 20.79 15.3871 20.7572C15.4036 20.7244 15.4275 20.6961 15.4568 20.6746L24.1817 12.6248C24.5791 12.2652 24.0966 12.0912 23.5743 12.416L12.6242 19.4741C12.591 19.4962 12.5533 19.5103 12.5139 19.5154C12.4746 19.5204 12.4346 19.5162 12.3971 19.5031L7.74797 18.001C6.71484 17.6936 6.71484 16.9687 7.98071 16.4525L26.5829 9.12179C26.7304 9.04948 26.8906 9.00807 27.0541 9Z" fill="white"/>
<rect x="0.5" y="0.5" width="34" height="34" rx="9.5" stroke="#822A27"/>
</svg>
