<svg width="35" height="35" viewBox="0 0 35 35" fill="none" xmlns="http://www.w3.org/2000/svg">
<path d="M17.4998 1.82288C14.7766 1.8258 12.101 2.5374 9.73608 3.88771C7.37117 5.23801 5.3984 7.18054 4.01171 9.5243C2.62503 11.8681 1.87217 14.5324 1.82717 17.2552C1.78217 19.9781 2.44657 22.6658 3.75505 25.0541L1.82275 33.177L9.94567 31.2448C12.0407 32.3941 14.3708 33.0492 16.7579 33.1601C19.1449 33.2711 21.5257 32.8349 23.7183 31.8848C25.911 30.9348 27.8574 29.4961 29.4089 27.6787C30.9605 25.8612 32.076 23.7132 32.6702 21.3986C33.2645 19.0841 33.3218 16.6643 32.8377 14.3243C32.3537 11.9842 31.3411 9.78576 29.8773 7.89694C28.4136 6.00812 26.5374 4.47891 24.3922 3.42618C22.2469 2.37344 19.8894 1.82504 17.4998 1.82288ZM9.6613 8.94683H13.9342C14.1276 8.94683 14.3131 9.02366 14.4498 9.1604C14.5866 9.29715 14.6634 9.48261 14.6634 9.676C14.6395 10.6484 14.8028 11.6164 15.1446 12.527C15.2918 12.8319 15.3242 13.1796 15.2358 13.5064C15.1474 13.8332 14.9442 14.1171 14.6634 14.3062L13.1686 15.7645C13.8314 17.0588 14.698 18.2381 15.7353 19.2573C16.7461 20.3114 17.9206 21.1954 19.2134 21.875L20.6717 20.3802C21.4009 19.651 21.7363 19.651 22.4509 19.8989C23.3616 20.2407 24.3295 20.4041 25.3019 20.3802C25.4924 20.389 25.6728 20.4687 25.8077 20.6036C25.9425 20.7385 26.0222 20.9188 26.0311 21.1093V25.3823C26.0222 25.5728 25.9425 25.7531 25.8077 25.888C25.6728 26.0229 25.4924 26.1025 25.3019 26.1114C21.0127 25.9245 16.9469 24.1464 13.8978 21.1239C10.8705 18.078 9.09155 14.0103 8.91025 9.71975C8.91199 9.51905 8.99101 9.32673 9.13088 9.18278C9.27075 9.03884 9.46072 8.95433 9.6613 8.94683Z" stroke="#822A27" stroke-width="1.5" stroke-linecap="round" stroke-linejoin="round"/>
</svg>
