<svg width="35" height="35" viewBox="0 0 35 35" fill="none" xmlns="http://www.w3.org/2000/svg">
<path d="M17.5079 1C14.4666 1.00308 11.4786 1.75203 8.83747 3.17322C6.19639 4.59441 3.99322 6.6389 2.44459 9.10568C0.895964 11.5725 0.0551883 14.3766 0.00493101 17.2424C-0.0453263 20.1082 0.696665 22.937 2.15795 25.4507L0 34L9.07154 31.9663C11.4113 33.1759 14.0135 33.8654 16.6793 33.9822C19.3451 34.099 22.0039 33.6399 24.4526 32.64C26.9014 31.6401 29.0751 30.1258 30.8078 28.213C32.5405 26.3002 33.7863 24.0394 34.45 21.6033C35.1136 19.1673 35.1776 16.6205 34.637 14.1576C34.0964 11.6947 32.9656 9.38087 31.3309 7.3929C29.6962 5.40493 27.6009 3.79546 25.2052 2.68746C22.8094 1.57946 20.1766 1.00227 17.5079 1ZM8.75396 8.49791H13.5259C13.7419 8.49791 13.949 8.57876 14.1017 8.72269C14.2544 8.86661 14.3402 9.06181 14.3402 9.26535C14.3135 10.2888 14.496 11.3076 14.8777 12.266C15.042 12.5869 15.0782 12.9528 14.9795 13.2968C14.8807 13.6407 14.6538 13.9396 14.3402 14.1386L12.6708 15.6735C13.411 17.0357 14.3789 18.2769 15.5373 19.3495C16.6662 20.459 17.9778 21.3894 19.4216 22.1047L21.0502 20.5314C21.8645 19.764 22.2391 19.764 23.0372 20.0249C24.0542 20.3846 25.1352 20.5566 26.2212 20.5314C26.4339 20.5407 26.6354 20.6246 26.786 20.7665C26.9366 20.9085 27.0256 21.0983 27.0355 21.2988V25.796C27.0256 25.9966 26.9366 26.1864 26.786 26.3283C26.6354 26.4703 26.4339 26.5541 26.2212 26.5635C21.431 26.3668 16.8904 24.4953 13.4852 21.3142C10.1044 18.1084 8.11768 13.8272 7.91521 9.3114C7.91715 9.10016 8.00539 8.89774 8.1616 8.74624C8.31781 8.59474 8.52996 8.5058 8.75396 8.49791Z" fill="#822A27"/>
</svg>
