<svg width="35" height="35" viewBox="0 0 35 35" fill="none" xmlns="http://www.w3.org/2000/svg">
<path d="M17.5 1.823C14.7767 1.82592 12.1011 2.53752 9.73623 3.88783C7.37133 5.23814 5.39855 7.18066 4.01186 9.52442C2.62518 11.8682 1.87232 14.5325 1.82732 17.2554C1.78232 19.9782 2.44672 22.6659 3.7552 25.0542L1.82291 33.1772L9.94582 31.2449C12.0409 32.3942 14.371 33.0493 16.758 33.1603C19.1451 33.2712 21.5259 32.835 23.7185 31.885C25.9111 30.9349 27.8576 29.4962 29.4091 27.6788C30.9606 25.8614 32.0761 23.7133 32.6704 21.3988C33.2646 19.0842 33.3219 16.6645 32.8379 14.3244C32.3538 11.9843 31.3412 9.78589 29.8775 7.89706C28.4137 6.00824 26.5375 4.47903 24.3923 3.4263C22.2471 2.37356 19.8896 1.82516 17.5 1.823ZM9.66145 8.94696H13.9344C14.1278 8.94696 14.3132 9.02378 14.45 9.16052C14.5867 9.29727 14.6635 9.48274 14.6635 9.67612C14.6396 10.6485 14.803 11.6165 15.1448 12.5272C15.292 12.832 15.3243 13.1797 15.2359 13.5065C15.1475 13.8333 14.9443 14.1172 14.6635 14.3063L13.1687 15.7647C13.8315 17.059 14.6981 18.2383 15.7354 19.2574C16.7463 20.3115 17.9208 21.1955 19.2135 21.8751L20.6719 20.3803C21.401 19.6511 21.7364 19.6511 22.451 19.899C23.3617 20.2408 24.3297 20.4042 25.3021 20.3803C25.4926 20.3892 25.673 20.4688 25.8078 20.6037C25.9427 20.7386 26.0224 20.9189 26.0312 21.1095V25.3824C26.0224 25.5729 25.9427 25.7533 25.8078 25.8881C25.673 26.023 25.4926 26.1027 25.3021 26.1115C21.0128 25.9247 16.947 24.1465 13.8979 21.124C10.8707 18.0781 9.0917 14.0104 8.91041 9.71987C8.91214 9.51917 8.99116 9.32685 9.13103 9.18291C9.27091 9.03896 9.46088 8.95445 9.66145 8.94696Z" stroke="#822A27" stroke-width="1.5" stroke-linecap="round" stroke-linejoin="round"/>
</svg>
